<mxfile host="www.draw.io" modified="2019-11-19T08:42:59.267Z" agent="Mozilla/5.0 (Windows NT 10.0; Win64; x64) AppleWebKit/537.36 (KHTML, like Gecko) Chrome/78.0.3904.108 Safari/537.36" etag="UpSOQ7QqomVOfqWO-Swh" version="12.2.6" type="github" pages="1">
  <diagram name="攻击验证" id="74e2e168-ea6b-b213-b513-2b3c1d86103e">
    <mxGraphModel dx="1024" dy="534" grid="1" gridSize="10" guides="1" tooltips="1" connect="1" arrows="1" fold="1" page="1" pageScale="1" pageWidth="1100" pageHeight="850" background="#ffffff" math="0" shadow="0">
      <root>
        <mxCell id="0"/>
        <mxCell id="1" parent="0"/>
        <mxCell id="77e6c97f196da883-1" value="攻击验证流程" style="swimlane;html=1;childLayout=stackLayout;startSize=20;rounded=0;shadow=0;labelBackgroundColor=none;strokeWidth=1;fontFamily=Verdana;fontSize=15;align=center;" parent="1" vertex="1">
          <mxGeometry x="70" y="40" width="820" height="800" as="geometry">
            <mxRectangle x="70" y="40" width="120" height="20" as="alternateBounds"/>
          </mxGeometry>
        </mxCell>
        <mxCell id="77e6c97f196da883-26" style="edgeStyle=orthogonalEdgeStyle;rounded=1;html=1;labelBackgroundColor=none;startArrow=none;startFill=0;startSize=5;endArrow=classicThin;endFill=1;endSize=5;jettySize=auto;orthogonalLoop=1;strokeWidth=1;fontFamily=Verdana;fontSize=8" parent="77e6c97f196da883-1" source="77e6c97f196da883-8" target="77e6c97f196da883-11" edge="1">
          <mxGeometry relative="1" as="geometry"/>
        </mxCell>
        <mxCell id="pJOgSc4y9Abql6cgwIiJ-11" value="采集" style="text;html=1;resizable=0;points=[];align=center;verticalAlign=middle;labelBackgroundColor=#ffffff;fontSize=16;" vertex="1" connectable="0" parent="77e6c97f196da883-26">
          <mxGeometry x="-0.329" y="1" relative="1" as="geometry">
            <mxPoint as="offset"/>
          </mxGeometry>
        </mxCell>
        <mxCell id="77e6c97f196da883-31" style="edgeStyle=orthogonalEdgeStyle;rounded=1;html=1;labelBackgroundColor=none;startArrow=none;startFill=0;startSize=5;endArrow=classicThin;endFill=1;endSize=5;jettySize=auto;orthogonalLoop=1;strokeWidth=1;fontFamily=Verdana;fontSize=8" parent="77e6c97f196da883-1" source="77e6c97f196da883-16" target="77e6c97f196da883-9" edge="1">
          <mxGeometry relative="1" as="geometry"/>
        </mxCell>
        <mxCell id="77e6c97f196da883-33" style="edgeStyle=orthogonalEdgeStyle;rounded=1;html=1;labelBackgroundColor=none;startArrow=none;startFill=0;startSize=5;endArrow=classicThin;endFill=1;endSize=5;jettySize=auto;orthogonalLoop=1;strokeWidth=1;fontFamily=Verdana;fontSize=8;exitX=1;exitY=0.5;exitDx=0;exitDy=0;entryX=0.5;entryY=0;entryDx=0;entryDy=0;" parent="77e6c97f196da883-1" source="77e6c97f196da883-11" target="77e6c97f196da883-14" edge="1">
          <mxGeometry relative="1" as="geometry">
            <mxPoint x="530" y="290" as="sourcePoint"/>
          </mxGeometry>
        </mxCell>
        <mxCell id="pJOgSc4y9Abql6cgwIiJ-17" value="设备" style="text;html=1;resizable=0;points=[];align=center;verticalAlign=middle;labelBackgroundColor=#ffffff;fontSize=15;" vertex="1" connectable="0" parent="77e6c97f196da883-33">
          <mxGeometry x="0.1654" y="-1" relative="1" as="geometry">
            <mxPoint as="offset"/>
          </mxGeometry>
        </mxCell>
        <mxCell id="107ba76e4e335f99-1" style="edgeStyle=orthogonalEdgeStyle;rounded=1;html=1;labelBackgroundColor=none;startArrow=none;startFill=0;startSize=5;endArrow=classicThin;endFill=1;endSize=5;jettySize=auto;orthogonalLoop=1;strokeWidth=1;fontFamily=Verdana;fontSize=8;exitX=0.25;exitY=1;exitDx=0;exitDy=0;entryX=0;entryY=0.5;entryDx=0;entryDy=0;" parent="77e6c97f196da883-1" source="pJOgSc4y9Abql6cgwIiJ-8" target="pJOgSc4y9Abql6cgwIiJ-19" edge="1">
          <mxGeometry relative="1" as="geometry">
            <mxPoint x="80" y="530" as="targetPoint"/>
          </mxGeometry>
        </mxCell>
        <mxCell id="pJOgSc4y9Abql6cgwIiJ-20" value="采集配置" style="text;html=1;resizable=0;points=[];align=center;verticalAlign=middle;labelBackgroundColor=#ffffff;fontSize=15;" vertex="1" connectable="0" parent="107ba76e4e335f99-1">
          <mxGeometry x="0.026" y="84" relative="1" as="geometry">
            <mxPoint x="11" y="3" as="offset"/>
          </mxGeometry>
        </mxCell>
        <mxCell id="107ba76e4e335f99-6" style="edgeStyle=orthogonalEdgeStyle;rounded=1;html=1;labelBackgroundColor=none;startArrow=none;startFill=0;startSize=5;endArrow=classicThin;endFill=1;endSize=5;jettySize=auto;orthogonalLoop=1;strokeWidth=1;fontFamily=Verdana;fontSize=8;entryX=0.5;entryY=0;entryDx=0;entryDy=0;" parent="77e6c97f196da883-1" source="77e6c97f196da883-14" target="77e6c97f196da883-15" edge="1">
          <mxGeometry relative="1" as="geometry">
            <mxPoint x="780" y="330" as="targetPoint"/>
            <Array as="points">
              <mxPoint x="710" y="225"/>
            </Array>
          </mxGeometry>
        </mxCell>
        <mxCell id="77e6c97f196da883-2" value="基础设施层" style="swimlane;html=1;startSize=20;fontSize=16;" parent="77e6c97f196da883-1" vertex="1">
          <mxGeometry y="20" width="220" height="780" as="geometry"/>
        </mxCell>
        <mxCell id="77e6c97f196da883-8" value="发电仿真组件" style="rounded=1;whiteSpace=wrap;html=1;shadow=0;labelBackgroundColor=none;strokeWidth=1;fontFamily=Verdana;fontSize=14;align=center;" parent="77e6c97f196da883-2" vertex="1">
          <mxGeometry x="20" y="65" width="100" height="45" as="geometry"/>
        </mxCell>
        <mxCell id="pJOgSc4y9Abql6cgwIiJ-2" value="输电仿真组件" style="rounded=1;whiteSpace=wrap;html=1;shadow=0;labelBackgroundColor=none;strokeWidth=1;fontFamily=Verdana;fontSize=14;align=center;" vertex="1" parent="77e6c97f196da883-2">
          <mxGeometry x="30" y="100" width="100" height="45" as="geometry"/>
        </mxCell>
        <mxCell id="pJOgSc4y9Abql6cgwIiJ-6" value="变电仿真组件" style="rounded=1;whiteSpace=wrap;html=1;shadow=0;labelBackgroundColor=none;strokeWidth=1;fontFamily=Verdana;fontSize=14;align=center;" vertex="1" parent="77e6c97f196da883-2">
          <mxGeometry x="40" y="140" width="100" height="45" as="geometry"/>
        </mxCell>
        <mxCell id="pJOgSc4y9Abql6cgwIiJ-7" value="配电仿真组件" style="rounded=1;whiteSpace=wrap;html=1;shadow=0;labelBackgroundColor=none;strokeWidth=1;fontFamily=Verdana;fontSize=14;align=center;" vertex="1" parent="77e6c97f196da883-2">
          <mxGeometry x="50" y="180" width="100" height="45" as="geometry"/>
        </mxCell>
        <mxCell id="pJOgSc4y9Abql6cgwIiJ-8" value="调度仿真组件" style="rounded=1;whiteSpace=wrap;html=1;shadow=0;labelBackgroundColor=none;strokeWidth=1;fontFamily=Verdana;fontSize=14;align=center;" vertex="1" parent="77e6c97f196da883-2">
          <mxGeometry x="60" y="220" width="100" height="45" as="geometry"/>
        </mxCell>
        <mxCell id="pJOgSc4y9Abql6cgwIiJ-12" style="edgeStyle=orthogonalEdgeStyle;rounded=1;html=1;labelBackgroundColor=none;startArrow=none;startFill=0;startSize=5;endArrow=classicThin;endFill=1;endSize=5;jettySize=auto;orthogonalLoop=1;strokeWidth=1;fontFamily=Verdana;fontSize=8;entryX=0;entryY=0.5;entryDx=0;entryDy=0;" edge="1" parent="77e6c97f196da883-2" target="77e6c97f196da883-9">
          <mxGeometry relative="1" as="geometry">
            <mxPoint x="110" y="265" as="sourcePoint"/>
            <mxPoint x="300" y="292" as="targetPoint"/>
            <Array as="points">
              <mxPoint x="110" y="310"/>
              <mxPoint x="200" y="310"/>
              <mxPoint x="200" y="350"/>
            </Array>
          </mxGeometry>
        </mxCell>
        <mxCell id="pJOgSc4y9Abql6cgwIiJ-13" value="环境" style="text;html=1;resizable=0;points=[];align=center;verticalAlign=middle;labelBackgroundColor=#ffffff;fontSize=16;" vertex="1" connectable="0" parent="pJOgSc4y9Abql6cgwIiJ-12">
          <mxGeometry x="-0.329" y="1" relative="1" as="geometry">
            <mxPoint as="offset"/>
          </mxGeometry>
        </mxCell>
        <mxCell id="77e6c97f196da883-3" value="数据持久层" style="swimlane;html=1;startSize=20;fontSize=16;" parent="77e6c97f196da883-1" vertex="1">
          <mxGeometry x="220" y="20" width="190" height="780" as="geometry"/>
        </mxCell>
        <mxCell id="77e6c97f196da883-11" value="设备特征" style="rounded=1;whiteSpace=wrap;html=1;shadow=0;labelBackgroundColor=none;strokeWidth=1;fontFamily=Verdana;fontSize=16;align=center;" parent="77e6c97f196da883-3" vertex="1">
          <mxGeometry x="40" y="115" width="100" height="60" as="geometry"/>
        </mxCell>
        <mxCell id="77e6c97f196da883-9" value="验证环境" style="rounded=1;whiteSpace=wrap;html=1;shadow=0;labelBackgroundColor=none;strokeWidth=1;fontFamily=Verdana;fontSize=15;align=center;" parent="77e6c97f196da883-3" vertex="1">
          <mxGeometry x="40" y="320" width="100" height="60" as="geometry"/>
        </mxCell>
        <mxCell id="77e6c97f196da883-12" value="漏洞信息" style="rounded=1;whiteSpace=wrap;html=1;shadow=0;labelBackgroundColor=none;strokeWidth=1;fontFamily=Verdana;fontSize=15;align=center;" parent="77e6c97f196da883-3" vertex="1">
          <mxGeometry x="40" y="466" width="100" height="60" as="geometry"/>
        </mxCell>
        <mxCell id="77e6c97f196da883-28" value="&lt;font style=&quot;font-size: 15px&quot;&gt;漏洞&lt;/font&gt;" style="edgeStyle=orthogonalEdgeStyle;rounded=1;html=1;labelBackgroundColor=none;startArrow=none;startFill=0;startSize=5;endArrow=classicThin;endFill=1;endSize=5;jettySize=auto;orthogonalLoop=1;strokeWidth=1;fontFamily=Verdana;fontSize=8;entryX=0.5;entryY=1;entryDx=0;entryDy=0;exitX=0.5;exitY=0;exitDx=0;exitDy=0;" parent="77e6c97f196da883-3" source="77e6c97f196da883-12" target="77e6c97f196da883-9" edge="1">
          <mxGeometry relative="1" as="geometry">
            <mxPoint x="40" y="420" as="sourcePoint"/>
            <Array as="points">
              <mxPoint x="90" y="420"/>
              <mxPoint x="90" y="420"/>
            </Array>
          </mxGeometry>
        </mxCell>
        <mxCell id="77e6c97f196da883-30" style="edgeStyle=orthogonalEdgeStyle;rounded=1;html=1;labelBackgroundColor=none;startArrow=none;startFill=0;startSize=5;endArrow=classicThin;endFill=1;endSize=5;jettySize=auto;orthogonalLoop=1;strokeWidth=1;fontFamily=Verdana;fontSize=8;exitX=0.5;exitY=1;exitDx=0;exitDy=0;" parent="77e6c97f196da883-3" source="77e6c97f196da883-11" target="77e6c97f196da883-9" edge="1">
          <mxGeometry relative="1" as="geometry"/>
        </mxCell>
        <mxCell id="pJOgSc4y9Abql6cgwIiJ-14" value="设备匹配" style="text;html=1;resizable=0;points=[];align=center;verticalAlign=middle;labelBackgroundColor=#ffffff;fontSize=15;" vertex="1" connectable="0" parent="77e6c97f196da883-30">
          <mxGeometry x="0.1697" y="-1" relative="1" as="geometry">
            <mxPoint as="offset"/>
          </mxGeometry>
        </mxCell>
        <mxCell id="pJOgSc4y9Abql6cgwIiJ-15" value="参数配置" style="edgeStyle=orthogonalEdgeStyle;rounded=0;orthogonalLoop=1;jettySize=auto;html=1;fontSize=15;" edge="1" parent="77e6c97f196da883-3" source="77e6c97f196da883-10" target="77e6c97f196da883-12">
          <mxGeometry relative="1" as="geometry"/>
        </mxCell>
        <mxCell id="77e6c97f196da883-10" value="系统字典" style="rounded=1;whiteSpace=wrap;html=1;shadow=0;labelBackgroundColor=none;strokeWidth=1;fontFamily=Verdana;fontSize=15;align=center;" parent="77e6c97f196da883-3" vertex="1">
          <mxGeometry x="40" y="594" width="100" height="60" as="geometry"/>
        </mxCell>
        <mxCell id="107ba76e4e335f99-2" style="edgeStyle=orthogonalEdgeStyle;rounded=1;html=1;labelBackgroundColor=none;startArrow=none;startFill=0;startSize=5;endArrow=classicThin;endFill=1;endSize=5;jettySize=auto;orthogonalLoop=1;strokeWidth=1;fontFamily=Verdana;fontSize=8;entryX=1.032;entryY=0.93;entryDx=0;entryDy=0;entryPerimeter=0;exitX=1;exitY=0.5;exitDx=0;exitDy=0;" parent="77e6c97f196da883-3" source="77e6c97f196da883-10" target="77e6c97f196da883-9" edge="1">
          <mxGeometry relative="1" as="geometry">
            <Array as="points">
              <mxPoint x="170" y="624"/>
              <mxPoint x="170" y="376"/>
            </Array>
            <mxPoint x="450" y="590" as="sourcePoint"/>
          </mxGeometry>
        </mxCell>
        <mxCell id="pJOgSc4y9Abql6cgwIiJ-16" value="环境参数" style="text;html=1;resizable=0;points=[];align=center;verticalAlign=middle;labelBackgroundColor=#ffffff;fontSize=15;" vertex="1" connectable="0" parent="107ba76e4e335f99-2">
          <mxGeometry x="0.4833" y="3" relative="1" as="geometry">
            <mxPoint as="offset"/>
          </mxGeometry>
        </mxCell>
        <mxCell id="77e6c97f196da883-4" value="核心业务层" style="swimlane;html=1;startSize=20;fontSize=16;" parent="77e6c97f196da883-1" vertex="1">
          <mxGeometry x="410" y="20" width="210" height="780" as="geometry"/>
        </mxCell>
        <mxCell id="77e6c97f196da883-14" value="安全检测" style="rounded=1;whiteSpace=wrap;html=1;shadow=0;labelBackgroundColor=none;strokeWidth=1;fontFamily=Verdana;fontSize=15;align=center;" parent="77e6c97f196da883-4" vertex="1">
          <mxGeometry x="55" y="175" width="100" height="60" as="geometry"/>
        </mxCell>
        <mxCell id="pJOgSc4y9Abql6cgwIiJ-19" value="配置采集" style="rounded=1;whiteSpace=wrap;html=1;shadow=0;labelBackgroundColor=none;strokeWidth=1;fontFamily=Verdana;fontSize=15;align=center;" vertex="1" parent="77e6c97f196da883-4">
          <mxGeometry x="50" y="636" width="100" height="60" as="geometry"/>
        </mxCell>
        <mxCell id="pJOgSc4y9Abql6cgwIiJ-21" value="服务识别" style="rounded=1;whiteSpace=wrap;html=1;shadow=0;labelBackgroundColor=none;strokeWidth=1;fontFamily=Verdana;fontSize=15;align=center;" vertex="1" parent="77e6c97f196da883-4">
          <mxGeometry x="50" y="520" width="100" height="60" as="geometry"/>
        </mxCell>
        <mxCell id="pJOgSc4y9Abql6cgwIiJ-22" value="漏洞匹配" style="rounded=1;whiteSpace=wrap;html=1;shadow=0;labelBackgroundColor=none;strokeWidth=1;fontFamily=Verdana;fontSize=15;align=center;" vertex="1" parent="77e6c97f196da883-4">
          <mxGeometry x="50" y="400" width="100" height="60" as="geometry"/>
        </mxCell>
        <mxCell id="pJOgSc4y9Abql6cgwIiJ-25" style="edgeStyle=orthogonalEdgeStyle;rounded=1;html=1;labelBackgroundColor=none;startArrow=none;startFill=0;startSize=5;endArrow=classicThin;endFill=1;endSize=5;jettySize=auto;orthogonalLoop=1;strokeWidth=1;fontFamily=Verdana;fontSize=8;exitX=0.25;exitY=0;exitDx=0;exitDy=0;" edge="1" parent="77e6c97f196da883-4" source="pJOgSc4y9Abql6cgwIiJ-22">
          <mxGeometry relative="1" as="geometry">
            <mxPoint x="165" y="215" as="sourcePoint"/>
            <mxPoint x="75" y="237" as="targetPoint"/>
          </mxGeometry>
        </mxCell>
        <mxCell id="pJOgSc4y9Abql6cgwIiJ-28" value="漏洞" style="text;html=1;resizable=0;points=[];align=center;verticalAlign=middle;labelBackgroundColor=#ffffff;fontSize=15;" vertex="1" connectable="0" parent="pJOgSc4y9Abql6cgwIiJ-25">
          <mxGeometry x="0.389" y="1" relative="1" as="geometry">
            <mxPoint as="offset"/>
          </mxGeometry>
        </mxCell>
        <mxCell id="pJOgSc4y9Abql6cgwIiJ-26" style="edgeStyle=orthogonalEdgeStyle;rounded=1;html=1;labelBackgroundColor=none;startArrow=none;startFill=0;startSize=5;endArrow=classicThin;endFill=1;endSize=5;jettySize=auto;orthogonalLoop=1;strokeWidth=1;fontFamily=Verdana;fontSize=8;exitX=1;exitY=0.5;exitDx=0;exitDy=0;entryX=0.75;entryY=1;entryDx=0;entryDy=0;" edge="1" parent="77e6c97f196da883-4" source="pJOgSc4y9Abql6cgwIiJ-21" target="77e6c97f196da883-14">
          <mxGeometry relative="1" as="geometry">
            <mxPoint x="175" y="225" as="sourcePoint"/>
            <mxPoint x="310" y="580" as="targetPoint"/>
          </mxGeometry>
        </mxCell>
        <mxCell id="pJOgSc4y9Abql6cgwIiJ-27" value="识别服务" style="text;html=1;resizable=0;points=[];align=center;verticalAlign=middle;labelBackgroundColor=#ffffff;fontSize=15;" vertex="1" connectable="0" parent="pJOgSc4y9Abql6cgwIiJ-26">
          <mxGeometry x="0.4944" y="1" relative="1" as="geometry">
            <mxPoint as="offset"/>
          </mxGeometry>
        </mxCell>
        <mxCell id="pJOgSc4y9Abql6cgwIiJ-30" value="数据查询" style="rounded=1;whiteSpace=wrap;html=1;shadow=0;labelBackgroundColor=none;strokeWidth=1;fontFamily=Verdana;fontSize=15;align=center;" vertex="1" parent="77e6c97f196da883-4">
          <mxGeometry x="50" y="710" width="100" height="60" as="geometry"/>
        </mxCell>
        <mxCell id="77e6c97f196da883-5" value="系统展示层" style="swimlane;html=1;startSize=20;fontSize=16;" parent="77e6c97f196da883-1" vertex="1">
          <mxGeometry x="620" y="20" width="200" height="780" as="geometry"/>
        </mxCell>
        <mxCell id="77e6c97f196da883-15" value="检测效果展示" style="rounded=1;whiteSpace=wrap;html=1;shadow=0;labelBackgroundColor=none;strokeWidth=1;fontFamily=Verdana;fontSize=15;align=center;" parent="77e6c97f196da883-5" vertex="1">
          <mxGeometry x="40" y="230" width="100" height="60" as="geometry"/>
        </mxCell>
        <mxCell id="77e6c97f196da883-16" value="可验证" style="rhombus;whiteSpace=wrap;html=1;rounded=0;shadow=0;labelBackgroundColor=none;strokeWidth=1;fontFamily=Verdana;fontSize=12;align=center;" parent="77e6c97f196da883-5" vertex="1">
          <mxGeometry x="50" y="320" width="80" height="60" as="geometry"/>
        </mxCell>
        <mxCell id="77e6c97f196da883-17" value="攻击效果展示" style="rounded=1;whiteSpace=wrap;html=1;shadow=0;labelBackgroundColor=none;strokeWidth=1;fontFamily=Verdana;fontSize=15;align=center;" parent="77e6c97f196da883-5" vertex="1">
          <mxGeometry x="40" y="450" width="100" height="60" as="geometry"/>
        </mxCell>
        <mxCell id="77e6c97f196da883-19" value="统计图表展示" style="rounded=1;whiteSpace=wrap;html=1;shadow=0;labelBackgroundColor=none;strokeWidth=1;fontFamily=Verdana;fontSize=15;align=center;" parent="77e6c97f196da883-5" vertex="1">
          <mxGeometry x="40" y="560" width="100" height="60" as="geometry"/>
        </mxCell>
        <mxCell id="77e6c97f196da883-34" style="edgeStyle=orthogonalEdgeStyle;rounded=1;html=1;labelBackgroundColor=none;startArrow=none;startFill=0;startSize=5;endArrow=classicThin;endFill=1;endSize=5;jettySize=auto;orthogonalLoop=1;strokeColor=#000000;strokeWidth=1;fontFamily=Verdana;fontSize=8;fontColor=#000000;" parent="77e6c97f196da883-5" source="77e6c97f196da883-15" target="77e6c97f196da883-16" edge="1">
          <mxGeometry relative="1" as="geometry"/>
        </mxCell>
        <mxCell id="77e6c97f196da883-35" value="是" style="edgeStyle=orthogonalEdgeStyle;rounded=1;html=1;labelBackgroundColor=none;startArrow=none;startFill=0;startSize=5;endArrow=classicThin;endFill=1;endSize=5;jettySize=auto;orthogonalLoop=1;strokeWidth=1;fontFamily=Verdana;fontSize=8" parent="77e6c97f196da883-5" source="77e6c97f196da883-16" target="77e6c97f196da883-17" edge="1">
          <mxGeometry relative="1" as="geometry"/>
        </mxCell>
        <mxCell id="pJOgSc4y9Abql6cgwIiJ-31" value="查询结果" style="rounded=1;whiteSpace=wrap;html=1;shadow=0;labelBackgroundColor=none;strokeWidth=1;fontFamily=Verdana;fontSize=15;align=center;" vertex="1" parent="77e6c97f196da883-5">
          <mxGeometry x="40" y="670" width="100" height="60" as="geometry"/>
        </mxCell>
        <mxCell id="pJOgSc4y9Abql6cgwIiJ-9" style="edgeStyle=orthogonalEdgeStyle;rounded=1;html=1;labelBackgroundColor=none;startArrow=none;startFill=0;startSize=5;endArrow=classicThin;endFill=1;endSize=5;jettySize=auto;orthogonalLoop=1;strokeWidth=1;fontFamily=Verdana;fontSize=8;exitX=1;exitY=0.5;exitDx=0;exitDy=0;entryX=0;entryY=0.5;entryDx=0;entryDy=0;" edge="1" parent="77e6c97f196da883-1" source="pJOgSc4y9Abql6cgwIiJ-8" target="77e6c97f196da883-11">
          <mxGeometry relative="1" as="geometry">
            <mxPoint x="130" y="118" as="sourcePoint"/>
            <mxPoint x="250" y="120" as="targetPoint"/>
            <Array as="points">
              <mxPoint x="200" y="263"/>
              <mxPoint x="200" y="165"/>
            </Array>
          </mxGeometry>
        </mxCell>
        <mxCell id="pJOgSc4y9Abql6cgwIiJ-10" value="采集" style="text;html=1;resizable=0;points=[];align=center;verticalAlign=middle;labelBackgroundColor=#ffffff;fontSize=16;" vertex="1" connectable="0" parent="pJOgSc4y9Abql6cgwIiJ-9">
          <mxGeometry x="0.0424" y="-1" relative="1" as="geometry">
            <mxPoint as="offset"/>
          </mxGeometry>
        </mxCell>
        <mxCell id="77e6c97f196da883-29" style="edgeStyle=orthogonalEdgeStyle;rounded=1;html=1;labelBackgroundColor=none;startArrow=none;startFill=0;startSize=5;endArrow=classicThin;endFill=1;endSize=5;jettySize=auto;orthogonalLoop=1;strokeWidth=1;fontFamily=Verdana;fontSize=8;entryX=0.5;entryY=1;entryDx=0;entryDy=0;" parent="77e6c97f196da883-1" source="77e6c97f196da883-12" target="pJOgSc4y9Abql6cgwIiJ-22" edge="1">
          <mxGeometry relative="1" as="geometry">
            <mxPoint x="490" y="320" as="targetPoint"/>
          </mxGeometry>
        </mxCell>
        <mxCell id="pJOgSc4y9Abql6cgwIiJ-18" value="漏洞匹配" style="text;html=1;resizable=0;points=[];align=center;verticalAlign=middle;labelBackgroundColor=#ffffff;fontSize=15;" vertex="1" connectable="0" parent="77e6c97f196da883-29">
          <mxGeometry x="-0.5731" y="-2" relative="1" as="geometry">
            <mxPoint x="50" y="-2" as="offset"/>
          </mxGeometry>
        </mxCell>
        <mxCell id="77e6c97f196da883-40" style="edgeStyle=orthogonalEdgeStyle;rounded=1;html=1;labelBackgroundColor=none;startArrow=none;startFill=0;startSize=5;endArrow=classicThin;endFill=1;endSize=5;jettySize=auto;orthogonalLoop=1;strokeWidth=1;fontFamily=Verdana;fontSize=8;exitX=1;exitY=0.25;exitDx=0;exitDy=0;entryX=0;entryY=0.5;entryDx=0;entryDy=0;" parent="77e6c97f196da883-1" source="pJOgSc4y9Abql6cgwIiJ-30" target="77e6c97f196da883-19" edge="1">
          <mxGeometry relative="1" as="geometry">
            <mxPoint x="695" y="730" as="sourcePoint"/>
            <mxPoint x="645" y="760" as="targetPoint"/>
            <Array as="points">
              <mxPoint x="580" y="745"/>
              <mxPoint x="580" y="710"/>
              <mxPoint x="610" y="710"/>
              <mxPoint x="610" y="610"/>
            </Array>
          </mxGeometry>
        </mxCell>
        <mxCell id="pJOgSc4y9Abql6cgwIiJ-32" style="edgeStyle=orthogonalEdgeStyle;rounded=1;html=1;labelBackgroundColor=none;startArrow=none;startFill=0;startSize=5;endArrow=classicThin;endFill=1;endSize=5;jettySize=auto;orthogonalLoop=1;strokeWidth=1;fontFamily=Verdana;fontSize=8;exitX=1;exitY=0.833;exitDx=0;exitDy=0;entryX=0;entryY=0.5;entryDx=0;entryDy=0;exitPerimeter=0;" edge="1" parent="77e6c97f196da883-1" source="pJOgSc4y9Abql6cgwIiJ-30" target="pJOgSc4y9Abql6cgwIiJ-31">
          <mxGeometry relative="1" as="geometry">
            <mxPoint x="570" y="770" as="sourcePoint"/>
            <mxPoint x="670" y="620" as="targetPoint"/>
          </mxGeometry>
        </mxCell>
      </root>
    </mxGraphModel>
  </diagram>
</mxfile>
